<?xml version="1.0" encoding="UTF-8" standalone="no"?><!DOCTYPE svg PUBLIC "-//W3C//DTD SVG 1.1//EN" "http://www.w3.org/Graphics/SVG/1.1/DTD/svg11.dtd"><svg width="100%" height="100%" viewBox="0 0 2481 2481" version="1.1" xmlns="http://www.w3.org/2000/svg" xmlns:xlink="http://www.w3.org/1999/xlink" xml:space="preserve" xmlns:serif="http://www.serif.com/" style="fill-rule:evenodd;clip-rule:evenodd;stroke-linejoin:round;stroke-miterlimit:2;"><g><g><path id="W" d="M2431.47,681.68c-28.066,19.399 -572.101,-51.46 -890.163,615.267c-134.146,281.201 -151.523,577.394 -155.814,632.548c-11.789,151.505 -19.507,198.246 -106.141,216.657c-64.153,13.633 -151.327,-37.668 -165.135,-57.452c-40.733,-58.362 -262.342,-811.946 -245.288,-768.907c-14.843,-45.136 -22.566,-13.815 -37.853,31.054c-219.659,644.735 -205.385,623.541 -257.18,731.155c-55.999,116.349 -151.67,54.675 -171.93,26.877c-46.536,-63.85 -380.867,-1227.3 -380.867,-1227.3l219.361,-0.373l231.899,875.943c-0,-0 11.28,72.855 27.783,33.729c20.578,-72.349 234.058,-842.801 276.181,-894.202c12.28,-14.984 135.898,-29.497 149.995,3.04c65.853,152.002 285.823,1014.3 261.423,927.713c35.287,-255.472 161.942,-706.119 415.479,-994.028c187.095,-212.459 512.108,-332.229 513.473,-331.602c0,-0 245.684,-82.121 329.65,-95.142c-0,0 2.761,296.275 -14.873,275.022Z" style="fill:#267aff;"/><path d="M1550.66,2005.91c-4.571,-0.052 46.224,-315.874 93.073,-446.932c7.837,-21.924 115.375,-333.894 285.139,-457.712c153.324,-111.827 275.183,-155.819 489.782,-164.259l-43.158,238.835c-407.848,-28.996 -592.148,316.864 -683.829,818.033c-0,-0 -103.471,12.464 -141.007,12.035Z" style="fill:#267aff;"/><ellipse cx="2150.93" cy="1714.27" rx="165.968" ry="231.449" style="fill:#267aff;"/></g></g></svg>