<?xml version="1.0" encoding="UTF-8" standalone="no"?><!DOCTYPE svg PUBLIC "-//W3C//DTD SVG 1.1//EN" "http://www.w3.org/Graphics/SVG/1.1/DTD/svg11.dtd"><svg width="100%" height="100%" viewBox="0 0 1927 679" version="1.1" xmlns="http://www.w3.org/2000/svg" xmlns:xlink="http://www.w3.org/1999/xlink" xml:space="preserve" xmlns:serif="http://www.serif.com/" style="fill-rule:evenodd;clip-rule:evenodd;stroke-linejoin:round;stroke-miterlimit:2;"><g id="ChatGPT-Image-24-feb-2026--12_43_50.png" serif:id="ChatGPT Image 24 feb 2026, 12_43_50.png"><path d="M524.813,16.04c1.05,0.859 1.198,2.534 2.248,3.394c0.743,0.608 31.202,5.305 33.922,5.724c58.744,9.059 443.386,81.598 478.803,87.517c88.443,14.78 88.061,16.68 95.761,17.879c36.632,5.706 208.5,38.72 281.391,52.032c43.426,7.931 43.337,7.874 47.081,8.68c9.706,2.09 9.804,0.926 10.637,1.121c0.931,0.218 1.254,1.6 2.17,1.875c6.018,1.807 144.174,26.33 156.722,28.557c10.608,1.883 10.412,2.184 20.861,4.448c10.433,2.261 174.623,32.27 193.368,35.972c-1.266,2.386 0.103,4.082 -10.619,9.059c-3.763,1.746 -3.403,2.145 -7.108,4.045c-40.148,20.592 -40.474,19.767 -43.868,21.72c-31.731,18.266 -107.626,56.414 -117.067,61.159c-79.85,40.135 -148.153,76.724 -152.086,77.217c-1.3,0.163 -95.911,-18.838 -112.24,-22.294c-7.962,-1.685 -58.468,-12.375 -99.765,-19.877c-90.174,-16.382 -89.611,-18.398 -97.468,-19.634c-32.393,-5.095 -52.586,-10.979 -70.042,-14.065c-75.627,-13.372 -74.929,-16.285 -150.434,-30.41c-11.815,-2.21 -122.398,-22.896 -147.521,-28.527c-88.474,-19.828 -88.78,-17.835 -96.438,-19.669c-13.209,-3.164 -501.789,-97.176 -517.11,-99.781c-72.567,-12.34 -72.189,-13.719 -78.495,-14.744c-14.572,-2.368 -15.682,-7.007 -23.222,-0.554c41.987,9.136 264.832,49.76 311.619,59.373c37.413,7.686 37.461,7.353 468.472,92.04c36.344,7.141 600.383,120.221 610.546,122.645c-3.26,4.015 -3.54,3.745 -3.798,4.11c-9.092,4.963 -8.993,4.962 -13.543,7.326c-6.143,2.683 -6.111,2.359 -12.075,5.094c-98.354,-22.252 -1381.57,-281.961 -1405.758,-280.692l-3.099,3.655l-0.885,0.588c-0.929,-0.072 -1.858,-0.144 -2.788,-0.216c-21.929,-1.859 -35.417,-7.655 -54.605,-10.335c-7.394,-1.033 -7.638,-0.28 -13.69,-4.412c2.498,-1.749 2.384,-1.593 5.24,-2.945c16.02,-4.846 66.244,12.298 73.982,9.86c5.307,-1.672 247.993,-88.903 262.702,-93.654c21.483,-8.341 103.097,-36.681 108.126,-38.243c5.653,-1.756 56.81,-20.653 61.741,-22.474c0.654,-0.242 0.617,-0.19 8.329,-2.563Z" style="fill:#384b60;fill-opacity:1;"/><path d="M72.988,180.807c0.929,0.072 1.858,0.144 2.788,0.216l2.016,0.501c56.837,9.909 113.498,22.423 154.731,29.197c11.947,1.963 11.621,3.45 148.431,29.533c63.308,12.07 413.137,81.849 506.733,101.613c47.237,9.975 47.478,8.719 591.225,121.025c0.514,0.707 3.708,1.531 3.674,7.184c-0.684,111.356 1.076,190.746 -1.469,193.018c-3.276,2.923 -91.009,-15.64 -114.485,-21.623c-17.632,-4.494 -18.084,-2.28 -222.756,-45.928c-25.602,-5.46 -319.042,-68.037 -320.04,-68.174c-8.468,-1.16 -48.76,-10.561 -52.984,-11.546c-9.153,-2.135 -9.869,-0.482 -21.396,-4.414c-3.12,-1.064 -3.276,-0.253 -40.284,-8.669c-9.921,-2.256 -11.602,-2.386 -12.628,-2.465c-4.328,-0.333 -21.369,-5.229 -23.208,-5.757c-4.709,-0.299 -31.879,-6.666 -34.077,-6.894c-5.472,-0.569 -17.726,-5.765 -29.655,-6.316c-0.386,-0.018 -23.763,-5.301 -25.304,-5.77c-2.375,-0.605 -24.035,-6.126 -29.894,-6.691c-1.366,-0.132 -10.717,-1.034 -16.744,-3.72c-0.966,-0.43 -1.128,0.311 -12.95,-2.652c-25.331,-6.348 -25.316,-5.56 -50.648,-11.64l-2.12,-0.44c-12.937,-2.318 -12.575,-3.177 -25.439,-5.179l-2.12,-0.795l-2.12,-0.468c-4.134,-0.477 -4.118,-0.42 -4.465,-0.515c-19.848,-5.441 -19.781,-4.999 -40.053,-9.354l-2.12,-0.345l-2.12,-0.405c-0.78,-0.105 -1.512,-0.463 -2.293,-0.569c-8.767,-1.183 -29.801,-6.645 -37.985,-8.384l-2.12,-0.46l-2.12,-0.764l-2.12,-0.544l-2.12,-0.165c-1.523,-0.347 -18.879,-4.307 -19.079,-4.144c-1.165,0.951 -1.138,2.932 -2.308,3.876c-0.537,0.433 -1.5,-0.804 -2.037,-0.371c-24.488,-4.6 -24.219,-5.328 -125.009,-27.866c-90.16,-20.161 -89.816,-21.009 -97.649,-22.739c-12.404,-2.74 -12.649,-2.017 -23.409,-8.802c-0.447,-0.282 -0.456,-0.177 -6.151,-2.393c0.213,-0.106 2.952,1.17 4.578,-2.282c0.472,-1.003 -0.797,-144.314 -0.909,-156.863c-0.136,-15.299 -1.227,-15.223 -1.126,-16.546c0.095,-1.249 1.242,-2.262 1.337,-3.511Z" style="fill:#112433;fill-opacity:1;"/><path d="M1925.036,244.981c2.009,7.743 0.986,163.844 -0.826,167.928c-2.99,6.737 -53.609,31.211 -135.321,77.133c-40.379,22.693 -91.863,50.341 -99.888,54.65c-7.664,4.116 -92.651,49.756 -94.933,53.016c-3.885,5.55 2.518,68.193 -4.963,75.854c-4.254,4.356 -4.772,3.333 -10.442,5.149c5.187,-10.863 6.031,-10.456 6.211,-11.485c0.719,-4.1 0.341,-23.378 0.301,-25.411c-1.582,-80.58 0.413,-80.435 -0.895,-161.134l0.501,-2.12l0.289,-2.128c-2.866,-4.681 -3.12,-4.972 -10.852,-5.815c-11.277,-1.23 -39.044,-8.888 -55.039,-10.509l-2.545,-3.006c9.92,-4.439 9.81,-4.459 10.683,-4.799c10.811,-6.353 374.85,-195.344 391,-203.942c1.703,-0.411 1.537,-0.54 6.719,-3.382Z" style="fill:#0b1522;fill-opacity:1;"/><path d="M531.096,13.766c39.615,-14.074 40.071,-16.172 61.555,-11.583c4.883,1.043 5.061,-0.518 61.666,9.635c203.134,36.435 203.052,36.609 214.094,38.143l8.617,1.731c3.528,0.713 35.85,7.241 44.245,8.165c1.37,0.223 1.319,0.287 17.096,2.965c2.773,0.416 5.546,0.832 8.319,1.248c6.914,1.518 6.927,0.817 87.022,15.993c22.583,4.279 50.479,8.784 54.877,9.494c18.222,4.788 62.519,11.6 67.984,12.44l8.4,2.084c5.618,0.891 54.226,8.6 69.972,12.648c1.188,0.233 1.184,0.106 14.926,2.481l8.549,1.143c0.234,0.033 0.23,0.037 14.74,2.883c2.841,0.557 5.683,1.114 8.524,1.671c2.066,0.329 1.907,0.167 4.151,0.524c1.023,0.163 0.946,0.158 12.773,2.127c2.246,0.483 2.193,0.205 4.459,0.692c0.488,0.105 0.45,0.109 6.07,1.468c3.326,0.59 3.133,0.791 6.488,1.387c1.348,0.239 1.251,0.205 16.886,2.767c5.418,1.196 5.293,1.001 10.571,2.172c3.539,0.647 7.078,1.294 10.618,1.94c3.557,0.586 7.113,1.172 10.67,1.758c5.307,0.953 5.147,0.884 10.514,2.332c17.108,2.973 17.036,2.528 34.08,5.711c1.192,0.248 0.966,0.353 1.968,0.561c0.686,0.143 0.637,0.126 8.593,1.701c15.619,2.305 25.233,4.61 27.402,5.129l6.469,1.453c14.527,1.626 23.096,4.596 48.751,8.573c28.828,4.899 28.488,5.759 57.237,10.672c7.44,1.272 8.249,0.523 23.34,4.011c3.527,0.741 7.055,1.483 10.582,2.224c4.613,0.655 20.54,2.917 57.424,9.692c0.492,0.09 0.45,0.108 6.078,1.458l2.425,0.533c0.396,0.074 85.444,14.854 99.414,18.043c10.632,1.962 15.557,2.555 16.918,2.719c32.806,5.368 118.971,21.179 129.306,23.076c15.682,2.878 18.95,6.137 20.166,7.349c-5.182,2.842 -5.016,2.971 -6.719,3.382c-1.284,-0.979 -1.432,-3.032 -2.715,-4.012c-0.712,-0.543 -3.821,1.129 -4.125,1.293c-12.034,6.475 -25.831,12.586 -28.116,13.598c-11.446,5.07 -11.538,0.222 -16.607,-0.784c-39.256,-7.791 -721.535,-134.862 -784.285,-146.549c-5.592,-1.042 -54.948,-10.234 -69.962,-12.704c-40.232,-6.618 -211.691,-39.411 -247.974,-45.438c-34.375,-5.71 -132.776,-24.633 -207.758,-37.767c-8.998,-1.576 -10.297,-5.133 -16.499,1.495c-0.235,-0.055 -2.934,-0.686 -2.934,-0.686c-1.946,-0.826 -1.872,-0.441 -3.919,-0.922l-2.325,-2.123Z" style="fill:#2d3e50;fill-opacity:0.99;"/><path d="M321.324,421.809c0.537,-0.433 1.5,0.804 2.037,0.371c1.17,-0.944 1.143,-2.925 2.308,-3.876c0.2,-0.163 17.556,3.796 19.079,4.144l2.12,0.165l2.12,0.544l2.12,0.764l2.12,0.46c8.184,1.739 29.218,7.201 37.985,8.384c0.78,0.105 1.512,0.463 2.293,0.569l2.12,0.405l2.12,0.345c20.272,4.356 20.205,3.913 40.053,9.354c0.347,0.095 0.331,0.038 4.465,0.515l2.12,0.468l2.12,0.795c12.864,2.002 12.502,2.861 25.439,5.179l2.12,0.44c25.332,6.08 25.316,5.292 50.648,11.64c11.821,2.963 11.984,2.222 12.95,2.652c6.028,2.686 15.378,3.588 16.744,3.72c5.858,0.565 27.519,6.086 29.894,6.691c1.541,0.469 24.917,5.752 25.304,5.77c11.929,0.55 24.183,5.747 29.655,6.316c2.198,0.229 29.368,6.595 34.077,6.894c1.839,0.528 18.88,5.424 23.208,5.757c1.026,0.079 2.707,0.208 12.628,2.465c37.008,8.417 37.164,7.605 40.284,8.669c11.527,3.933 12.243,2.279 21.396,4.414c4.225,0.986 44.517,10.386 52.984,11.546c0.999,0.137 294.438,62.714 320.04,68.174c204.672,43.647 205.124,41.434 222.756,45.928c23.476,5.983 111.209,24.546 114.485,21.623c2.545,-2.271 0.785,-81.662 1.469,-193.018c0.035,-5.653 -3.16,-6.477 -3.674,-7.184c3.888,-1.957 3.483,-2.231 6.607,-5.419c5.964,-2.735 5.932,-2.411 12.075,-5.094c1.231,0.8 1.275,2.822 2.506,3.621c0.593,0.385 0.716,0.224 8.048,-3.669c6.751,5.06 6.685,5.149 7.443,5.391c0.385,0.123 0.658,-0.739 1.043,-0.617l2.545,3.006c15.995,1.62 43.762,9.279 55.039,10.509c7.731,0.843 7.985,1.134 10.852,5.815l-0.289,2.128l-0.501,2.12c1.308,80.699 -0.687,80.554 0.895,161.134c0.04,2.033 0.418,21.31 -0.301,25.411c-0.18,1.029 -1.024,0.622 -6.211,11.485c-7.272,-0.285 -7.29,0.124 -25.404,-3.703c-1.012,-0.209 -1.016,-0.083 -12.69,-2.424c-32.657,-6.05 -32.679,-9.12 -44.918,-5.894l-1.765,0.808c-5.518,2.979 -5.006,4.714 -14.885,5.195l-8.516,-1.536c-2.347,-0.537 -62.486,-13.297 -67.921,-14.451c-22.961,-4.61 -65.678,-14.761 -84.585,-18.008c-17.616,-3.835 -112.804,-24.559 -220.465,-46.71c-18.059,-4.461 -18.126,-3.359 -36.09,-8.069c-3.544,-0.691 -7.088,-1.382 -10.632,-2.072c-12.874,-2.666 -287.583,-62.287 -294.656,-63.624l-8.549,-1.739c-8.202,-2.006 -197.146,-43.857 -205.515,-45.293c-2.131,-0.534 -4.262,-1.067 -6.393,-1.601c-19.607,-4.828 -130.945,-28.443 -214.354,-47.781l1223.449,197.871c-12.363,-1.535 -15.348,1.406 -12.504,13.539c2.595,11.071 20.91,14.281 31.037,12.108c3.789,-4.281 4.435,-4.534 3.263,-14.328c-7.71,-0.563 -9.474,2.456 -13.431,-4.098c-1.785,-2.957 -3.982,-2.332 -4.281,-2.507l-1.679,-1.679l-2.405,-3.036l-1223.449,-197.871l1223.449,197.871l2.405,3.036l1.679,1.679c0.299,0.175 2.495,-0.451 4.281,2.507c3.957,6.554 5.721,3.534 13.431,4.098c-4.204,-10.115 -11.708,-9.378 -21.795,-11.319l-1223.449,-197.871Z" style="fill:#121e2b;fill-opacity:0.99;"/><path d="M1086.864,435.598c3.705,1.166 3.67,1.21 4.002,1.259c25.714,3.834 25.216,5.702 50.865,10.471c89.889,16.715 89.659,17.781 97.489,19.146c88.221,15.383 87.819,17.436 95.546,18.375c0.234,1.507 0.468,3.014 0.703,4.521c-0.028,1.45 -0.315,16.251 1.952,18.022c1.129,0.882 1.234,0.646 12.153,3.423c0.452,0.11 0.347,0.148 5.565,1.687c-0.239,9.621 3.656,12.673 -5.348,15.739c-5.057,1.722 -3.863,10.037 -0.384,12.072c7.469,4.369 5.353,6.037 5.208,14.607c-0.175,10.379 -23.246,-6.689 -23.462,4.229c-0.016,0.819 -0.2,10.073 -1.177,10.174c-1.75,0.18 -20.928,-3.679 -22.739,-4.043c-14.101,-2.837 -4.065,-12.268 -9.178,-15.936c-3.205,-2.299 -20.63,-3.545 -20.892,-7.11c-1.077,-14.639 1.128,-15.101 2.344,-15.356c6.258,-1.311 8.583,-1.895 5.974,-7.847c-2.18,-4.972 -8.13,-3.586 -8.282,-8.652c-0.032,-1.056 -0.378,-12.583 2.388,-12.987c2.641,-0.385 19.628,6.107 19.831,-1.812c0.03,-1.177 0.351,-13.698 -1.451,-14.644c-1.627,-0.853 -1.876,0.237 -22.611,-3.994c-4.62,-0.943 -2.911,2.646 -3.035,58.867c-0.025,11.167 -1.519,25.332 3.312,26.533c3.027,0.753 3.117,0.182 38.057,8.478c-0.028,0.017 -0.446,3.791 -4.381,2.683c-0.165,-0.047 -1.462,-0.412 -2.12,-0.336c-3.339,0.384 -3.276,0.407 -6.577,-0.388c-43.221,-10.413 -65.936,-11.503 -73.98,-15.177c-2.386,-0.255 -17.423,-1.86 -29.548,-5.148c-11.709,-3.175 -57.373,-11.108 -57.368,-11.452c0.021,-1.472 2.189,-2.351 2.21,-3.823c30.505,3.719 34.91,8.158 35.033,0.689c0.231,-14.04 0.674,-79.06 -0.001,-80.161c-0.144,-0.234 -0.246,-0.064 -3.326,-0.866c-1.468,-0.305 -17.389,-3.615 -18.431,-3.421c-0.398,0.074 -4.923,17.386 3.472,19.448c0.884,0.217 11.16,2.001 12.131,2.17c4.796,10.372 6.804,13.505 -3.687,18.076c-1.028,0.448 -6.276,9.235 2.375,12.779c2.506,1.026 2.765,2.574 2.823,4.413c0.031,0.99 0.354,11.296 -1.202,12.327c-2.387,1.581 -20.952,-4.391 -21.346,0.307c-0.584,6.965 5.264,11.295 -1.593,10.718c-1.433,-0.121 -28.365,-5.502 -28.786,-6.5c-1.866,-4.417 5.039,-13.084 -9.499,-15.983c-9.64,-1.923 -12.468,0.656 -12.739,-5.031c-0.409,-8.575 -3.224,-10.936 4.687,-14.134c4.266,-1.725 3.771,-9.39 0.004,-11.749c-8.089,-5.067 -5.097,-7.04 -4.727,-16.563c0.325,-8.354 21.106,6.364 21.287,-4.222c0.017,-1.004 0.2,-11.634 -0.488,-12.548c-1.612,-2.142 -24.047,-7.04 -24.96,-4.477c-0.442,1.239 -1.145,80.576 0.34,82.542c1.647,2.181 36.881,9.747 40.124,10.444c-0.915,0.706 -0.992,-1.14 -1.997,-0.365c-1.783,1.374 -0.427,2.31 -2.303,3.679c-0.804,0.587 -73.636,-13.538 -80.557,-16.605l-2.12,-0.371l-2.12,0.156l2.247,-3.963c7.17,1.263 6.956,2.086 14.166,1.531c22.301,4.065 21.971,4.698 23.907,4.956c3.662,0.487 3.329,-5.665 3.342,-7.782c0.037,-6.098 0.456,-74.55 0.323,-76.23c-0.069,-0.868 -1.047,-1.494 -1.116,-2.362l-0.324,-2.483Z" style="fill:#020305;fill-opacity:1;"/><path d="M3.577,167.048l1.116,-0.987c6.052,4.132 6.296,3.379 13.69,4.412c19.187,2.68 32.676,8.475 54.605,10.335c-0.095,1.249 -1.242,2.262 -1.337,3.511c-0.101,1.323 0.99,1.246 1.126,16.546c0.111,12.549 1.381,155.86 0.909,156.863c-1.626,3.453 -4.365,2.176 -4.578,2.282c-22.663,-4.485 -36.45,-8.3 -44.635,-9.91c-19.678,-3.87 -21.144,-7.057 -23.861,-15.549l-0.26,-4.367c-0.009,-5.657 -0.018,-11.314 -0.027,-16.971c-0.021,-7.505 0.086,-7.338 -0.184,-14.841c0.156,-8.479 0.131,-21.449 0.128,-23.314c-0.271,-5.93 0.044,-5.893 -0.209,-74.202l-0.007,-2.133c-0.022,-20.997 -0.344,-20.886 0.961,-27.675c0.855,-1.333 1.71,-2.667 2.565,-4l38.15,143.002c-2.132,-0.434 -15.884,-5.921 -12.857,9.521c0.616,3.141 0.937,2.836 2.547,6.018c4.136,3.557 4.378,5.479 16.492,6.084c11.533,-4.223 8.351,-18.831 -6.182,-21.623l-38.15,-143.002l25.742,17.574c-0.797,0.828 -5.008,5.208 -0.911,14.338c2.318,5.166 3.688,3.613 9.107,5.442c11.282,2.136 15.926,1.083 13.244,-10.068c-2.753,-11.447 -19.565,-9.886 -21.44,-9.712l-25.742,-17.574Z" style="fill:#16212e;fill-opacity:1;"/><path d="M540.274,17.497c6.202,-6.628 7.501,-3.071 16.499,-1.495c74.982,13.134 173.383,32.057 207.758,37.767c36.284,6.027 207.742,38.82 247.974,45.438c15.014,2.47 64.37,11.662 69.962,12.704c62.75,11.687 745.029,138.757 784.285,146.549c5.069,1.006 5.161,5.854 16.607,0.784c2.284,-1.012 16.082,-7.123 28.116,-13.598c0.305,-0.164 3.413,-1.837 4.125,-1.293c1.284,0.979 1.432,3.032 2.715,4.012c-16.151,8.598 -380.189,197.589 -391,203.942c-0.873,0.34 -0.763,0.361 -10.683,4.799c-0.385,-0.123 -0.658,0.739 -1.043,0.617c-0.758,-0.242 -0.692,-0.33 -7.443,-5.391c43.995,-23.251 360.647,-185.592 360.506,-187.775c-0.094,-1.459 -7.493,-2.566 -8.173,-2.668c-18.163,-4.678 -1217.415,-227.845 -1320.205,-244.391Z" style="fill:#748898;fill-opacity:1;"/><path d="M76.661,180.436l3.099,-3.655c24.188,-1.269 1307.404,258.439 1405.758,280.692c-3.124,3.188 -2.72,3.462 -6.607,5.419c-543.747,-112.305 -543.988,-111.05 -591.225,-121.025c-93.595,-19.764 -443.425,-89.543 -506.733,-101.613c-136.809,-26.083 -136.484,-27.57 -148.431,-29.533c-41.233,-6.773 -97.894,-19.288 -154.731,-29.197l-1.131,-1.089Z" style="fill:#a1b3c1;fill-opacity:1;"/><path d="M978.894,414.289c8.713,0.72 18.177,3.456 25.109,5.012c-0.006,1.371 -0.013,2.742 -0.019,4.113c-0.261,2.874 -0.803,8.838 -0.53,36.073c0.242,24.225 -0.114,42.06 0.224,46.801c0.253,3.547 2.051,2.635 42.887,11.68l-2.247,3.963c-6.171,-0.492 -8.132,-1.878 -8.791,-2.035c-18.844,-4.478 -36.715,-7.378 -39.929,-7.9c-27.85,-4.519 -54.653,-11.22 -59.359,-12.397c-15.643,-3.911 -18.895,-0.074 -23.11,-10.047c-0.03,-50.86 -0.507,-83.509 0.603,-86.35c1.99,-5.095 37.55,6.822 65.163,11.085Z" style="fill:#010306;fill-opacity:1;"/><path d="M124.297,166.884c7.539,-6.453 8.65,-1.814 23.222,0.554c6.307,1.025 5.929,2.404 78.495,14.744c15.321,2.605 503.901,96.617 517.11,99.781c7.657,1.834 7.964,-0.159 96.438,19.669c25.123,5.63 135.706,26.316 147.521,28.527c75.505,14.124 74.806,17.038 150.434,30.41c17.456,3.086 37.649,8.97 70.042,14.065c7.857,1.236 7.294,3.252 97.468,19.634c41.297,7.502 91.803,18.192 99.765,19.877c16.329,3.456 110.94,22.457 112.24,22.294c3.934,-0.494 72.237,-37.082 152.086,-77.217c9.441,-4.745 85.336,-42.893 117.067,-61.159c3.394,-1.954 3.719,-1.128 43.868,-21.72c3.705,-1.9 3.345,-2.299 7.108,-4.045c10.722,-4.976 9.353,-6.673 10.619,-9.059c8.848,1.782 7.076,4.15 7.091,4.16c-21.798,11.848 -262.974,136.206 -266.353,138.044c-7.976,4.338 -34.077,17.305 -37.053,18.783c-30.075,14.941 -29.717,15.993 -36.53,16.717c-10.162,-2.424 -574.201,-115.504 -610.546,-122.645c-431.011,-84.687 -431.06,-84.354 -468.472,-92.04c-46.787,-9.612 -269.632,-50.236 -311.619,-59.373Z" style="fill:#90a2b1;fill-opacity:1;"/><path d="M531.096,13.766l2.325,2.123c2.046,0.482 1.973,0.097 3.919,0.922c0,0 2.7,0.631 2.934,0.686c102.79,16.546 1302.042,239.713 1320.205,244.391c-2.389,3.263 -2.371,3.173 -5.61,5.511c-0.015,-0.01 1.757,-2.378 -7.091,-4.16c-18.745,-3.703 -182.935,-33.711 -193.368,-35.972c-10.45,-2.264 -10.253,-2.565 -20.861,-4.448c-12.548,-2.227 -150.704,-26.75 -156.722,-28.557c-0.915,-0.275 -1.239,-1.657 -2.17,-1.875c-0.833,-0.195 -0.931,0.969 -10.637,-1.121c-3.744,-0.806 -3.655,-0.749 -47.081,-8.68c-72.892,-13.312 -244.759,-46.326 -281.391,-52.032c-7.7,-1.199 -7.318,-3.099 -95.761,-17.879c-35.417,-5.919 -420.059,-78.459 -478.803,-87.517c-2.72,-0.419 -33.18,-5.117 -33.922,-5.724c-1.05,-0.859 -1.198,-2.534 -2.248,-3.394l1.924,-0.57l4.359,-1.705Z" style="fill:#0b1016;fill-opacity:1;"/><path d="M978.894,414.289c-27.613,-4.263 -63.173,-16.18 -65.163,-11.085c-1.11,2.841 -0.633,35.49 -0.603,86.35l-1.842,0.926c-3.611,-3.297 -2.535,-12.343 -2.586,-20.397c-0.404,-63.801 -0.582,-70.108 1.671,-72.429c4.503,-4.64 97.485,18.481 265.532,50.555c7.972,1.521 88.135,16.821 99.577,19.384c60.067,13.454 80.532,12.809 83.922,19.733c2.047,4.181 0.316,88.111 0.156,88.436c-1.629,3.312 -3.011,2.44 -45.871,-4.939c-34.939,-8.296 -35.03,-7.725 -38.057,-8.478c-4.831,-1.201 -3.336,-15.366 -3.312,-26.533c0.124,-56.221 -1.585,-59.81 3.035,-58.867c20.735,4.231 20.984,3.141 22.611,3.994c1.802,0.946 1.482,13.467 1.451,14.644c-0.203,7.919 -17.19,1.426 -19.831,1.812c-2.766,0.403 -2.42,11.931 -2.388,12.987c0.152,5.066 6.102,3.68 8.282,8.652c2.609,5.952 0.285,6.536 -5.974,7.847c-1.216,0.255 -3.421,0.717 -2.344,15.356c0.262,3.565 17.687,4.811 20.892,7.11c5.113,3.668 -4.923,13.099 9.178,15.936c1.811,0.364 20.989,4.223 22.739,4.043c0.978,-0.101 1.161,-9.355 1.177,-10.174c0.216,-10.918 23.287,6.15 23.462,-4.229c0.145,-8.57 2.261,-10.238 -5.208,-14.607c-3.479,-2.035 -4.673,-10.35 0.384,-12.072c9.005,-3.066 5.109,-6.118 5.348,-15.739c0.883,-10.699 2.253,-22.981 -3.672,-24.717c-8.176,-2.395 -8.145,-2.171 -16.7,-2.936c-7.727,-0.938 -7.325,-2.992 -95.546,-18.375c-7.83,-1.365 -7.599,-2.431 -97.489,-19.146c-25.649,-4.769 -25.151,-6.637 -50.865,-10.471c-0.332,-0.049 -0.296,-0.093 -4.002,-1.259c-4.394,-0.953 -4.515,0.083 -55.177,-10.685c-4.201,-1.334 -12.178,-3.985 -27.683,-5.612c-6.933,-1.556 -16.397,-4.292 -25.109,-5.012Z" style="fill:#d3daca;fill-opacity:0.99;"/><path d="M900.954,489.084c4.825,-16.395 -4.78,-90.058 5.695,-97.175c6.863,-4.663 36.742,3.054 178.018,31.151c22.091,4.394 21.983,4.345 266.851,52.303c21.25,4.162 16.858,11.168 16.433,32.864c-1.244,63.486 3.34,76.217 -9.989,74.803c-10.293,-1.092 -35.106,-6.321 -36.001,-6.343c-2.382,-0.059 -2.052,-0.724 -4.173,-1.614c-0.652,-0.274 -1.629,0.432 -2.12,-0.077c-1.069,-1.109 -0.91,-3.067 -1.979,-4.176c42.86,7.379 44.242,8.251 45.871,4.939c0.16,-0.325 1.891,-84.255 -0.156,-88.436c-3.39,-6.924 -23.856,-6.279 -83.922,-19.733c-11.443,-2.563 -91.605,-17.863 -99.577,-19.384c-168.047,-32.073 -261.029,-55.195 -265.532,-50.555c-2.252,2.321 -2.075,8.627 -1.671,72.429c0.051,8.054 -1.025,17.1 2.586,20.397l0.445,2.361c-5.998,-2.009 -6.501,-1.281 -6.813,-0.829c-1.222,1.769 -0.001,1.714 1.468,3.668c10.609,3.309 10.424,3.35 21.432,5.837c-2.199,0.735 -4.398,1.47 -6.598,2.204c-18.972,-4.349 -21.882,-5.116 -20.266,-14.637Z" style="fill:#010204;fill-opacity:1;"/><path d="M1031.687,424.913c50.662,10.768 50.783,9.732 55.177,10.685l0.324,2.483l-4.891,0.983c-11.726,-2.462 -11.664,-2.551 -14.668,-2.954c-4.71,-0.632 -3.763,1.536 -3.741,6.409c0.064,13.855 4.852,12.021 18.498,14.899c1.931,10.967 5.448,13.691 -4.403,18.617c-2.854,1.427 -2.886,9.609 0.039,11.316c7.459,4.354 5.44,6.064 4.959,14.604c-0.3,5.331 -3.174,2.217 -17.506,0.647c-4.878,-0.535 -3.728,8.861 -3.762,12.127c-12.264,1.414 -11.98,-0.721 -23.886,-3.354c-3.822,-0.845 -6.977,1.045 -7.136,-7.359c-0.331,-17.555 -22.293,-6.694 -22.326,-16.972c-0.034,-10.542 -1.022,-12.373 4.121,-13.047c4.819,-0.631 6.483,-7.508 -0.456,-11.49c-2.749,-1.578 -3.651,-1.636 -4.028,-15.739c-0.104,-3.911 2.026,-3.807 2.384,-3.789c7.678,0.375 7.17,3.364 14.843,2.968c4.88,-0.252 3.33,-13.187 3.296,-16.085c1.053,-1.649 2.107,-3.298 3.16,-4.947Z" style="fill:#000305;fill-opacity:1;"/><path d="M1228.916,554.167c-44.429,-10.644 -47.05,-8.845 -47.505,-13.986c-0.081,-0.917 0.201,-78.3 0.254,-78.677c0.581,-4.14 10.613,-1.656 25.87,2.232c2.224,0.567 5.354,19.359 -4.326,17.615c-0.766,-0.138 -16.942,-5.891 -16.977,1.447c-0.005,1.14 -0.064,13.343 1.07,14.212c2.465,1.889 3.013,0.727 5.272,2.886c1.31,1.252 3.61,9.256 -1.883,10.848c-8.027,2.326 -6.024,16.185 -0.345,17.506c6.597,1.534 18.666,1.441 19.015,7.583c0.449,7.892 -1.507,9.754 2.593,10.361c24.028,3.556 28.642,7.936 28.414,0.211c-0.597,-20.286 21.823,1.212 22.194,-8.494c0.104,-2.731 2.317,-11.67 -3.945,-15.236c-5.581,-3.179 -4.272,-11.42 -0.276,-12.605c6.249,-1.852 4.482,-3.782 4.46,-10.305c-0.049,-14.291 -16.498,-3.549 -16.92,-14.853c-0.039,-1.043 -0.475,-12.7 1.819,-12.914c0.823,-0.077 0.821,0.015 16.872,2.838c4.192,0.737 3.144,2.956 3.174,80.015c0.004,9.587 -5.521,3.801 -38.83,-0.682Z" style="fill:#cdd39a;fill-opacity:0.99;"/><path d="M103.1,266.816c2.193,0.441 4.386,0.882 6.58,1.322l-1.681,2.672c3.281,11.43 0.438,42.666 2.835,49.058c2.204,5.876 36.226,13.703 43.173,10.419c6.654,-3.145 2.917,-48.93 2.495,-50.721c-0.306,-2.347 0.255,-2.273 -0.572,-4.39c-0.253,-0.647 0.031,-0.599 -0.214,-1.226c1.039,-0.22 12.567,-2.663 12.738,-3.737c0.2,-1.255 -1.693,-0.264 -1.476,-1.531c0.353,-2.059 1.924,-1.086 2.273,-3.119c4.656,2.556 4.23,3.827 4.6,41.259c0.378,38.246 1.934,40.453 -5.214,43.445c-58.14,-11.555 -58.071,-12.211 -65.441,-16.066l-0.633,-1.389c-2.647,-18.592 -1.168,-63.375 -1.147,-63.459c0.245,-0.985 1.44,-1.552 1.685,-2.538Z" style="fill:#01070f;fill-opacity:1;"/><path d="M109.679,268.139c15.867,4.262 38.097,9.072 46.822,11.429c0.422,1.791 4.16,47.576 -2.495,50.721c-6.947,3.284 -40.97,-4.543 -43.173,-10.419c-2.397,-6.393 0.446,-37.629 -2.835,-49.058l1.681,-2.672Z" style="fill:#111d2a;fill-opacity:1;"/><path d="M1173.63,456.842c3.079,0.802 3.182,0.632 3.326,0.866c0.676,1.101 0.233,66.12 0.001,80.161c-0.123,7.469 -4.527,3.029 -35.033,-0.689c-2.836,-0.581 -5.673,-1.162 -8.509,-1.743c-3.243,-0.696 -38.478,-8.263 -40.124,-10.444c-1.485,-1.966 -0.781,-81.303 -0.34,-82.542c0.913,-2.563 23.348,2.335 24.96,4.477c0.688,0.914 0.505,11.544 0.488,12.548c-0.182,10.586 -20.962,-4.131 -21.287,4.222c-0.371,9.522 -3.362,11.496 4.727,16.563c3.767,2.36 4.262,10.024 -0.004,11.749c-7.911,3.198 -5.096,5.559 -4.687,14.134c0.271,5.687 3.099,3.108 12.739,5.031c14.538,2.899 7.632,11.566 9.499,15.983c0.422,0.998 27.353,6.38 28.786,6.5c6.857,0.577 1.008,-3.753 1.593,-10.718c0.394,-4.697 18.959,1.274 21.346,-0.307c1.556,-1.031 1.233,-11.337 1.202,-12.327c-0.058,-1.839 -0.317,-3.387 -2.823,-4.413c-8.651,-3.544 -3.403,-12.331 -2.375,-12.779c10.491,-4.57 8.483,-7.703 3.687,-18.076c3.787,-8.686 2.254,-8.883 2.828,-18.196Z" style="fill:#c6cfaf;fill-opacity:1;"/><path d="M743.25,419.239c4.4,1.065 35.744,8.648 54.922,13.604c-1.319,16.768 0.477,20.06 -1.7,38.641c-5.194,-0.235 -53.282,-7.251 -55.222,-16.256c-1.773,-8.228 -0.805,-23.393 -0.675,-25.424c0.673,-10.554 2.411,-9.989 2.675,-10.566Z" style="fill:#0f313f;fill-opacity:1;"/><path d="M998.407,423.004c1.498,6.487 0.473,56.811 0.552,80.785c0.022,6.503 -3.358,2.863 -9.643,1.693c-42.887,-7.982 -43.034,-7.3 -46.583,-8.63c-17.272,-6.472 -23.874,-4.064 -25.39,-7.894c-0.752,-1.899 -0.487,-65.217 -0.049,-80.324c0.16,-5.506 22.992,1.9 23.174,2.082c0.859,0.861 0.731,11.732 0.719,12.754c-0.103,8.744 -15.168,1.46 -17.749,1.841c-1.745,0.258 -5.414,16.357 1.901,19.981c6.71,3.324 4.615,10.703 0.185,11.77c-7.776,1.874 -4.087,4.927 -4.067,13.015c0.023,9 20.24,3.194 20.714,12.752c0.335,6.753 -2.177,9.32 4.635,10.548c23.439,4.227 23.401,4.907 25.33,4.201c0.497,-0.182 0.27,-0.391 0.468,-8.402c0.13,-5.277 6.406,-4.457 14.587,-2.871c9.205,1.785 7.728,-2.903 6.941,-12.126c-0.088,-1.029 -0.281,-0.768 -4.792,-4.289c-3.435,-2.682 -3.497,-10.699 0.117,-11.741c10.516,-3.032 5.84,-6.918 3.914,-17.696c0.428,-1.015 2.064,-1.156 2.493,-2.172c0.395,-0.937 -3.311,-0.904 -0.424,-12.701c0.312,-1.273 2.656,-1.305 2.968,-2.578Z" style="fill:#abcebb;fill-opacity:1;"/><path d="M489.293,369.823c26.381,7.018 26.259,6.851 52.761,12.975c0.982,18.082 0.361,17.892 0.157,36.027c-0.247,0.112 -1.474,2.374 -6.783,1.138c-39.666,-9.236 -39.638,-9.2 -44.542,-11.016c-2.288,-0.847 -6.145,-2.276 -5.214,-30.049c0.283,-8.444 2.565,-7.504 3.62,-9.074Z" style="fill:#0d303d;fill-opacity:1;"/><path d="M1860.479,261.888c0.68,0.102 8.079,1.209 8.173,2.668c0.141,2.183 -316.511,164.524 -360.506,187.775c-7.331,3.893 -7.454,4.055 -8.048,3.669c-1.231,-0.8 -1.275,-2.822 -2.506,-3.621c4.55,-2.364 4.451,-2.362 13.543,-7.326c0.258,-0.366 0.538,-0.095 3.798,-4.11c6.813,-0.724 6.455,-1.776 36.53,-16.717c2.976,-1.479 29.077,-14.445 37.053,-18.783c3.378,-1.837 244.554,-126.196 266.353,-138.044c3.239,-2.338 3.221,-2.248 5.61,-5.511Z" style="fill:#010102;fill-opacity:1;"/><path d="M362.018,342.853c5.825,2.682 5.348,3.934 25.135,8.484c14.905,3.427 14.664,3.603 29.692,6.318l0.956,1.193l-1.418,2.992l-2.725,2.247c-0.65,0.038 -0.421,1.597 -1.072,1.634c-1.226,0.071 -0.796,-1.479 -14.796,-4.105c-9.233,-1.732 -6.964,21.382 -1.909,22.944c2.785,0.861 13.41,3.372 14.613,3.396c3.807,0.076 3.317,1.143 5.904,3.992l0.562,1.515c-1.43,0.165 -0.735,1.267 -2.255,1.443c-0.347,0.04 -0.637,0.074 -4.316,-0.683c-38.888,-8 -42.653,-10.084 -45.978,-11.924c-7.67,-4.245 -1.41,-23.378 -4.536,-37.29l2.142,-2.155Z" style="fill:#0d2e3d;fill-opacity:1;"/><path d="M1003.985,423.414c1.866,0.287 20.57,3.168 23.194,4.372c0.75,0.344 0.599,1.731 1.348,2.075c0.034,2.898 1.584,15.833 -3.296,16.085c-7.673,0.396 -7.166,-2.593 -14.843,-2.968c-0.358,-0.017 -2.488,-0.122 -2.384,3.789c0.376,14.104 1.278,14.162 4.028,15.739c6.939,3.982 5.275,10.859 0.456,11.49c-5.143,0.673 -4.155,2.504 -4.121,13.047c0.033,10.278 21.995,-0.582 22.326,16.972c0.159,8.405 3.314,6.514 7.136,7.359c11.905,2.634 11.622,4.768 23.886,3.354c-0.327,1.591 -0.655,3.181 -0.982,4.772c-7.21,0.554 -6.996,-0.268 -14.166,-1.531c-40.837,-9.045 -42.634,-8.133 -42.887,-11.68c-0.338,-4.741 0.018,-22.576 -0.224,-46.801c-0.273,-27.235 0.269,-33.199 0.53,-36.073Z" style="fill:#a3d4af;fill-opacity:1;"/><path d="M751.977,411.161c11.281,-4.578 11.342,-5.671 23.245,-3.146c23.169,4.915 62.434,12.531 46.74,18.102c-9.946,3.53 -9.799,3.503 -19.591,7.296l-4.198,-0.571c-19.178,-4.956 -50.522,-12.54 -54.922,-13.604c0.038,-0.808 -0.966,-1.435 -0.928,-2.243c0,-0 3.253,-2.894 3.536,-3.145c2.04,-0.896 4.08,-1.793 6.119,-2.689Z" style="fill:#4ceb8a;fill-opacity:1;"/><path d="M618.054,389.233c14.505,-6.101 16.506,-8.383 25.692,-6.482c51.603,10.679 53.581,10.824 53.553,15.279c-0.015,2.451 -1.156,1.71 -22.044,10.018c-2.12,-0.22 -4.24,-0.44 -6.361,-0.659c-10.321,-2.417 -29.671,-6.418 -38.088,-9.034c-11.31,-3.516 -19.18,-3.325 -12.752,-9.121Z" style="fill:#4cea86;fill-opacity:1;"/><path d="M845.424,417.971c8.367,-3.287 8.234,-3.828 10.314,-3.603c3.089,0.336 3.982,1.562 2.317,38.772c-0.412,9.217 -22.217,12.785 -23.219,11.927c-2.561,-2.193 -1.321,-36.41 -1.206,-39.576c0.122,-3.361 4.393,-4.551 11.794,-7.521Z" style="fill:#02a893;fill-opacity:1;"/><path d="M707.263,440.327c-1.295,-2.403 -1.309,-3.826 -1.313,-4.176c-0.029,-2.878 -0.356,-35.222 -0.26,-35.976c0.638,-4.986 22.11,-10.812 22.773,-10.691c2.682,0.49 2.905,1.523 2.444,33.993c-0.146,10.281 -7.267,10.702 -23.645,16.851Z" style="fill:#02a994;fill-opacity:1;"/><path d="M326.003,363.196c-1.808,-5.981 -1.403,-37.731 -0.688,-39.57c0.961,-2.472 24.037,-12.868 24.502,-6.331c0.039,0.542 0.168,33.61 0.092,34.146c-0.841,5.891 -17.765,11.752 -23.906,11.755Z" style="fill:#03a98d;fill-opacity:1;"/><path d="M469.609,340.305c0.543,-0.157 6.254,-4.021 6.555,2.583c0.748,16.384 -0.201,31.152 -0.374,33.854c-0.124,1.933 -0.273,4.243 -20.955,12.123c-2.816,1.073 -4.529,-0.927 -3.595,-37.501c0.119,-4.668 5.05,-5.975 18.369,-11.059Z" style="fill:#04aa92;fill-opacity:1;"/><path d="M594.742,365.862c0.498,-0.193 5.608,-2.168 6.468,-1.657c4.129,2.452 1.521,3.69 1.458,12.583c-0.023,3.312 0.084,22.819 -0.496,25.648c-0.376,1.837 -0.737,3.594 -20.314,11.701c-3.397,1.407 -2.82,-1.602 -4.152,-37.309c-0.153,-4.101 0.531,-4.78 17.035,-10.965Z" style="fill:#02a690;fill-opacity:1;"/><path d="M650.15,378.107c-0.443,-0.142 -5.534,-1.773 -5.534,-1.773c-1.511,-2.917 0.24,-2.73 1.827,-5.519c6.102,-10.731 76.966,9.037 77.041,9.085c1.159,0.743 3.14,4.589 -13.947,10.076c-4.613,1.481 -4.615,0.449 -59.387,-11.868Z" style="fill:#28b496;fill-opacity:1;"/><path d="M773.738,396.137c4.705,-5.308 4.944,-6.152 12.028,-4.954c5.13,0.867 41.961,7.094 63.775,12.731c8.005,2.069 -10.744,11.098 -15.03,11.503c-4.384,0.415 -38.958,-8.703 -42.315,-9.588c-14.116,-3.722 -19.563,-1.959 -18.458,-9.693Z" style="fill:#2cb795;fill-opacity:1;"/><path d="M98.678,266.597c-4.711,12.583 -0.721,59.512 -1.286,61.378c-0.364,1.201 -2.631,1.08 -2.995,2.282c-0.446,-4.892 -4.513,-49.465 -1.23,-61.392c5.774,-20.976 19.875,-14.346 76.083,-3.301c-0.348,2.034 -1.92,1.06 -2.273,3.119c-0.217,1.267 1.676,0.276 1.476,1.531c-0.171,1.073 -11.699,3.516 -12.738,3.737c-8.315,-1.623 -8.092,-2.046 -16.47,-3.878c-31.204,-6.825 -34.291,-13.67 -40.568,-3.477Z" style="fill:#030c18;fill-opacity:1;"/><path d="M1082.297,439.064l4.891,-0.983c0.069,0.868 1.047,1.494 1.116,2.362c0.134,1.68 -0.285,70.131 -0.323,76.23c-0.013,2.117 0.32,8.269 -3.342,7.782c-1.936,-0.258 -1.607,-0.891 -23.907,-4.956c0.327,-1.591 0.655,-3.181 0.982,-4.772c0.033,-3.266 -1.117,-12.662 3.762,-12.127c14.332,1.571 17.206,4.685 17.506,-0.647c0.481,-8.54 2.5,-10.25 -4.959,-14.604c-2.924,-1.707 -2.892,-9.889 -0.039,-11.316c9.851,-4.926 6.334,-7.65 4.403,-18.617c1.836,-4.738 4.183,-10.872 -0.089,-18.353Z" style="fill:#bcc6ca;fill-opacity:0.99;"/><path d="M367.97,338.337c12.321,-5.485 12.267,-8.817 25.201,-5.008c23.112,6.806 62.826,10.448 44.678,17.607c-1.21,0.477 -2.459,0.851 -3.669,1.328c-4.304,-2.213 -4.176,-3.684 -8.661,-2.054c-4.718,1.714 -7.25,4.996 -8.786,4.16c-2.22,-1.209 -1.812,-1.911 -4.312,-2.214c-2.055,-0.249 -4.074,-0.744 -6.095,-1.192c-25.566,-5.669 -25.323,-5.933 -27.541,-6.377c-6.577,-1.315 -7.47,-0.39 -10.815,-6.248Z" style="fill:#42e676;fill-opacity:1;"/><path d="M1551.087,511.591c-6.353,-1.229 -6.272,-0.866 -12.83,-0.922c-15.628,-5.309 -17.633,-27.898 -4.202,-26.193c9.682,1.229 26.731,3.21 29.658,15.282c1.646,6.787 1.153,7.244 -4.168,11.902c-4.284,0.508 -4.139,0.529 -8.458,-0.068Z" style="fill:#01050e;fill-opacity:1;"/><path d="M1393.453,478.564c0.874,-4.966 1.56,-5.911 7.132,-4.756c2.003,0.415 23.345,4.837 24.961,5.555c3.852,1.712 2.472,18.704 1.694,19.776c-1.822,2.512 -30.572,-3.838 -32.682,-6.122c-1.578,-1.709 -0.838,-2.014 -1.106,-14.453Z" style="fill:#80f795;fill-opacity:0.99;"/><path d="M539.815,342.705c3.764,0.449 18.592,2.22 46.511,9.052c0.565,0.138 15.887,3.198 8.147,7.37c-16.32,8.799 -20.476,5.507 -54.704,-2.729c6.539,-6.43 5.783,-7.299 5.095,-7.535c-3.048,-1.043 -2.239,-1.891 -4.565,-3.857l-0.483,-2.302Z" style="fill:#21a493;fill-opacity:1;"/><path d="M777.75,373.519c4.721,-0.658 7.3,-1.018 58.685,10.283c35.783,7.87 38.544,8.598 38.896,18.559c1.61,45.661 -1.507,48.273 -4.699,46.349c-2.133,-1.286 -1.763,-3.965 -1.712,-4.334c2.595,-18.787 0.489,-18.76 1.309,-37.799c0.634,-14.737 -7.065,-11.869 -39.965,-19.454c-7.296,-1.682 -52.268,-10.208 -52.711,-10.798c-0,-0 0.182,-2.582 0.198,-2.807Z" style="fill:#6a8a92;fill-opacity:1;"/><path d="M1393.193,523.065c0.964,-5.168 -0.004,-7.62 5.201,-6.774c2.25,0.366 23.229,3.775 27.74,6.509c2.531,1.534 1.928,16.169 1.564,17.124c-0.777,2.036 -1.638,2.628 -27.093,-2.779c-9.306,-1.977 -7.753,-4.716 -7.411,-14.08Z" style="fill:#14f6fa;fill-opacity:0.99;"/><path d="M272.447,309.599c32.109,6.745 56.909,11.233 36.307,16.463c-0.606,-0.262 -1.287,0.845 -1.893,0.582c-2.337,-1.011 -1.795,-2.027 -4.286,-2.042c-4.219,-0.026 -4.083,-0.063 -4.308,0.03c-11.224,4.669 -11.452,1.746 -23.49,-0.751c-2.218,-0.46 -22.728,-4.715 -27.598,-6.307c0.312,-0.425 3.902,-5.315 3.902,-5.315c0.82,-0.253 1.64,1.105 2.445,0.808c0.997,-0.368 1.047,-2.05 2.027,-2.46c0.327,-0.137 0.277,0.611 4.401,0.497c3.403,-0.095 3.278,-0.08 6.302,1.198c3.548,1.5 3.222,-0.337 6.191,-2.703Z" style="fill:#43e575;fill-opacity:1;"/><path d="M1544.774,619.679c-12.363,-1.535 -15.348,1.406 -12.504,13.539c2.595,11.071 20.91,14.281 31.037,12.108c1.654,3.677 2.929,3.878 0.725,7.279c-0.971,-0.658 -1.483,-1.865 -2.454,-2.523c-1.484,-1.005 -13.754,-1.402 -14.956,-1.441c-7.01,-0.227 -19.897,-4.322 -22.762,-7.582c-1.949,-2.218 -1.963,-1.997 -4.626,-3.39c-0.736,-0.322 -1.671,0.207 -2.407,-0.115c-2.744,-1.202 -9.464,-24.063 8.723,-23.655c3.367,0.075 16.582,1.458 16.948,1.67c0.325,0.188 0.169,0.304 2.276,4.11Z" style="fill:#03070f;fill-opacity:0.98;"/><path d="M1393.314,567.593c0.317,-7.981 0.152,-7.957 0.343,-8.62c0.667,-2.314 1.757,-4.743 29.971,2.874c7.789,2.103 4.349,18.031 2.916,19.292c-1.316,1.157 -14.446,-1.732 -15.681,-2.003c-11.673,-2.568 -15.962,0.368 -17.549,-11.543Z" style="fill:#16f7fb;fill-opacity:0.99;"/><path d="M423.285,319.195c23.421,5.779 23.814,3.712 44.765,10.333c8.966,2.833 -11.572,9.495 -12.804,9.895c-2.971,0.964 -3.738,1.212 -38.478,-6.624c-1.311,-3.082 -3.856,-4.953 4.052,-11.11l2.465,-2.494Z" style="fill:#1f9f93;fill-opacity:1;"/><path d="M751.977,411.161c-2.04,0.896 -4.08,1.793 -6.119,2.689c-0.866,-1.181 -2.22,-1.945 -3.086,-3.126c-1.486,-2.026 -0.654,-2.231 -0.156,-31.41c0.194,-11.363 -10.878,-11.165 -35.501,-16.391c-54.856,-11.642 -54.816,-11.61 -54.866,-11.681c-3.765,-5.318 13.516,-1.573 14.667,-1.324c64.319,13.939 64.339,13.415 69.888,14.78c16.433,4.043 9.013,10.782 12.294,43.905l2.878,2.557Z" style="fill:#678b93;fill-opacity:1;"/><path d="M294.013,293.444c17.388,2.499 41.008,7.889 48.792,11.003c0.483,0.193 5.415,2.333 -2.613,5.957c-11.697,5.28 -17.538,4.537 -50.556,-3.61c4.8,-5.884 5.59,-5.964 4.378,-13.349Z" style="fill:#1fa091;fill-opacity:1;"/><path d="M526.848,360.544c20.81,4.117 31.457,6.941 34.165,7.659c-4.414,5.312 -4.897,4.716 -5.797,5.136c-10.78,5.028 -10.178,6.005 -11.195,6.008c-0.93,0.002 -1.367,-1.361 -2.252,-1.646c-1.994,-0.642 -4.121,-0.751 -6.191,-1.072c-8.269,-1.282 -33.71,-8.626 -36.064,-8.349c-3.123,0.367 -2.892,-0.517 -4.252,-3.43l-1.834,-2.077l3.735,-1.429c1.658,0.642 0.684,1.733 2.339,2.374c0.31,0.12 2.189,0.848 4.151,0.141c0.979,-0.353 1.08,-1.952 2.033,-2.369c0.715,-0.313 1.515,0.422 2.293,0.473c5.483,0.356 5.573,-1.02 10.69,1.179c4.403,1.893 4.46,0.413 8.178,-2.597Z" style="fill:#42e572;fill-opacity:1;"/><path d="M491.023,360.317c-0.722,-0.12 -1.398,0.697 -2.12,0.577c-7.323,-1.218 10.979,-37.07 -10.706,-42.626c-11.257,-2.885 -79.284,-14.825 -80.169,-17.951c-1.799,-6.351 32.092,5.044 65.446,10.308c29.686,4.685 30.105,10.598 30.291,13.236c0.288,4.064 0.611,27.954 0.503,33.866l-1.075,2.12l-2.171,0.471Z" style="fill:#597e88;fill-opacity:1;"/><path d="M416.383,361.84c-0.431,5.727 -0.679,19.788 0.016,30.107c-2.587,-2.849 -2.097,-3.916 -5.904,-3.992c-1.203,-0.024 -11.829,-2.535 -14.613,-3.396c-5.055,-1.563 -7.323,-24.676 1.909,-22.944c14,2.627 13.569,4.177 14.796,4.105c0.65,-0.038 0.421,-1.597 1.072,-1.634l2.725,-2.247Z" style="fill:#00060e;fill-opacity:1;"/><path d="M104.321,215.665c1.005,-3.702 0.831,-3.785 1.085,-3.998c2.113,-1.773 23.515,4.007 24.504,4.872c2.423,2.12 1.629,15.358 1.232,16.388c-1.409,3.655 -24.163,-2.812 -25.813,-4.614c-1.676,-1.83 -0.823,-2.119 -1.008,-12.647Z" style="fill:#7cf794;fill-opacity:1;"/><path d="M1345.233,549.679c-1.23,-0.111 -38.15,0.8 -55.445,-9.478c-0.774,-0.46 -1.001,-4.914 11.088,-1.944c9.46,2.324 9.276,-3.514 21.111,-2.134c18.773,2.19 22.621,9.776 23.216,10.275c0.01,1.093 0.02,2.187 0.03,3.28Z" style="fill:#142737;fill-opacity:1;"/><path d="M287.971,347.111l0.059,8.494l-3.625,2.122c-2.187,10.124 -6.238,5.277 -16.038,2.306c-6.481,-1.965 -3.074,-24.694 -0.001,-24.683c1.194,0.005 9.574,0.037 14.426,3.824c0.461,0.36 1.142,0.61 1.309,1.171c1.255,4.222 0.24,4.337 0.426,4.662c1.076,1.882 2.336,0.166 3.444,2.104Z" style="fill:#00050d;fill-opacity:1;"/><path d="M758.297,431.123c2.753,0.663 11.501,-1.567 8.286,19.874c-0.744,4.963 0.58,7.98 -4.225,6.488c-14.374,-4.463 -14.622,-5.129 -15.08,-6.356c-0.355,-0.951 -3.097,-21.093 2.347,-21.673c0.702,-0.075 0.64,0.123 8.671,1.667Z" style="fill:#00020b;fill-opacity:1;"/><path d="M781.281,436.836c7.421,2.052 10.669,0.163 10.549,7.845c-0.27,17.211 3.028,20.787 -1.886,19.884c-8.16,-1.5 -16.969,-2.576 -17.349,-7.132c-0.593,-7.124 0.874,-17.458 1.088,-18.962c0.688,-4.843 2.735,-2.379 7.597,-1.634Z" style="fill:#00020a;fill-opacity:1;"/><path d="M1489.749,463.589c2.178,-9.558 6.933,-3.06 78.171,10.794c14.633,2.846 11.731,7.804 10.677,7.759c-2.952,-0.125 -2.75,-1.09 -36.153,-7.52c-38.707,-7.451 -48.522,-9.965 -52.695,-11.033Z" style="fill:#b3c5d6;fill-opacity:1;"/><path d="M662.746,438.864c-5.113,-1.123 -17.71,-1.58 -17.716,-9.027c-0.001,-1.893 -1.785,-18.798 4.948,-18.41c21.194,1.222 13.518,16.176 14.71,22.609c0.778,4.198 -1.378,3.426 -1.942,4.828Z" style="fill:#00040d;fill-opacity:1;"/><path d="M535.546,412.499c-13.546,-2.504 -13.48,-2.396 -14.63,-2.705c-6.189,-1.662 -3.276,-18.799 -3,-20.428c1.024,-6.026 14.917,-0.76 17.362,0.526c2.499,1.315 2.132,16.789 1.187,20.831l-0.919,1.775Z" style="fill:#00050e;fill-opacity:1;"/><path d="M632.867,407.118c0.24,0.091 7.612,-1.865 6.042,16.281c-1.349,15.594 -17.429,3.858 -18.143,1.955c-0.713,-1.903 -1.417,-17.153 -0.723,-19.056c0.889,-2.436 8.399,-0.028 12.823,0.821Z" style="fill:#00030a;fill-opacity:1;"/><path d="M497.517,380.442c1.159,0.267 13.332,3.065 13.945,5.164c0.327,1.121 -0.06,1.064 -0.046,14.597c0.007,6.96 -3.782,6.376 -13.751,3.22c-4.389,-1.389 -5.719,-6.663 -5.948,-20.205c-0.07,-4.121 1.624,-3.294 5.8,-2.777Z" style="fill:#00030b;fill-opacity:1;"/><path d="M493.428,362.772l1.834,2.077c1.359,2.913 1.129,3.797 4.252,3.43c2.354,-0.277 27.795,7.067 36.064,8.349c2.07,0.321 4.197,0.43 6.191,1.072c0.885,0.285 1.322,1.648 2.252,1.646c1.016,-0.002 0.415,-0.98 11.195,-6.008c0.9,-0.42 1.383,0.177 5.797,-5.136c2.12,0.77 4.338,1.251 6.459,2.02c7.088,2.573 -2.723,5.096 -21.386,12.833c-1.344,-0.086 -2.688,-0.172 -4.031,-0.258c-26.502,-6.124 -26.38,-5.957 -52.761,-12.975c-0.445,-0.766 -1.697,-0.809 -2.141,-1.575c-0.949,-1.637 1.905,-3.371 2.19,-3.544c1.288,-0.782 2.799,-1.15 4.086,-1.932Z" style="fill:#60f2af;fill-opacity:1;"/><path d="M1162.619,512.64l1.165,2.542c-7.917,1.794 -42.266,-2.898 -45.072,-7.168c-2.147,-3.267 0.208,-3.303 4.191,-3.25c5.739,0.077 3.967,-4.609 8.42,-4.55c14.391,0.191 20.247,7.555 31.296,12.426Z" style="fill:#112231;fill-opacity:1;"/><path d="M1247.778,531.481c-3.276,0.586 -3.25,0.224 -6.521,1.167c-8.962,2.586 -28.915,-2.765 -31.192,-5.665c-3.244,-4.132 0.926,-3.094 5.847,-4.509c1.977,-0.569 21.006,-6.041 25.716,0.178c3.247,4.288 5.48,-0.289 8.295,2.566c0.162,0.164 2.012,2.04 1.755,2.288c-0.964,0.928 -2.491,1.132 -3.428,2.087c-0.454,0.463 -0.018,1.425 -0.472,1.888Z" style="fill:#142533;fill-opacity:1;"/><path d="M982.535,474.475c1.162,8.695 -3.748,5.295 -12.555,5.095c-9.458,-0.215 -41.195,-8.129 -26.889,-10.734c2.164,-0.394 7.037,-6.692 22.881,-1.389c8.719,2.918 7.514,5.969 16.564,7.028Z" style="fill:#132636;fill-opacity:1;"/><path d="M1033.759,487.126c14.341,-0.788 16.826,-4.182 29.383,0.453c27.333,10.088 -12.954,12.653 -27.524,6.285c-0.346,-0.151 -3.935,-1.72 -3.789,-2.811c0.194,-1.446 1.735,-2.482 1.93,-3.927Z" style="fill:#122433;fill-opacity:1;"/><path d="M1082.297,439.064c4.272,7.481 1.925,13.615 0.089,18.353c-13.646,-2.877 -18.433,-1.044 -18.498,-14.899c-0.023,-4.873 -0.969,-7.041 3.741,-6.409c3.004,0.403 2.942,0.492 14.668,2.954Z" style="fill:#87f184;fill-opacity:1;"/><path d="M41.727,310.049c-2.132,-0.434 -15.884,-5.921 -12.857,9.521c0.616,3.141 0.937,2.836 2.547,6.018c-0.531,0.178 -0.325,3.504 -4.175,1.399c-3.9,-2.131 -4.104,-1.718 -6.809,-5.328c-1.635,0.483 -3.455,-0.391 -3.273,4.862c-0.272,-0.026 -1.505,2.898 -3.266,-0.311c-6.877,-12.534 5.56,-19.632 7.066,-20.492c5.525,-3.153 5.778,-1.413 12.162,-1.05l2.12,0.57l2.12,0.371l2.12,0.304c0.748,1.378 1.497,2.756 2.245,4.134Z" style="fill:#000206;fill-opacity:0.99;"/><path d="M376.695,356.912c7.201,1.652 9.318,1.943 8.834,13.556c-0.049,1.184 -0.335,8.045 -13.24,6.638c-1.603,-0.175 -6.635,-0.723 -5.839,-19.287c0.028,-0.661 1.201,-2.231 1.587,-2.339c0.676,-0.19 0.636,0.105 8.659,1.432Z" style="fill:#000107;fill-opacity:1;"/><path d="M247.234,330.165c1.593,0.409 14.526,0.5 10.881,14.898c-2.128,8.406 -16.604,8.397 -17.308,2.079c-1.382,-12.413 -5.537,-20.419 6.427,-16.977Z" style="fill:#000209;fill-opacity:1;"/><path d="M1173.63,456.842c-0.573,9.313 0.959,9.51 -2.828,18.196c-0.971,-0.169 -11.247,-1.953 -12.131,-2.17c-8.395,-2.062 -3.871,-19.373 -3.472,-19.448c1.042,-0.194 16.963,3.116 18.431,3.421Z" style="fill:#7bef7c;fill-opacity:0.99;"/><path d="M99.57,335.021c1.208,-0.273 2.416,-0.546 3.624,-0.819c7.37,3.855 7.301,4.511 65.441,16.066c0.393,0.798 3.009,-0.087 1.457,2.955c-1.902,3.726 -14.64,-1.556 -50.051,-8.23c-17.699,-3.336 -19.961,-6.926 -20.923,-8.454l0.451,-1.519Z" style="fill:#3a4d5f;fill-opacity:1;"/><path d="M294.013,293.444c1.212,7.385 0.422,7.465 -4.378,13.349c-7.925,-1.43 -23.85,-2.841 -23.977,-8.424c-0.208,-9.173 16.712,-6.443 28.354,-4.925Z" style="fill:#54e08a;fill-opacity:1;"/><path d="M364.373,339.597l3.597,-1.26c3.344,5.859 4.238,4.933 10.815,6.248c2.218,0.444 1.975,0.708 27.541,6.377c2.021,0.448 4.04,0.943 6.095,1.192c2.501,0.303 2.092,1.006 4.312,2.214c1.536,0.836 4.068,-2.446 8.786,-4.16c4.485,-1.63 4.357,-0.159 8.661,2.054c-3.995,1.768 -3.97,1.756 -4.315,1.909c-6.404,2.845 -6.585,1.887 -13.021,3.482c-15.027,-2.715 -14.787,-2.891 -29.692,-6.318c-19.787,-4.55 -19.31,-5.801 -25.135,-8.484c0.955,-1.866 0.678,-1.975 2.354,-3.255Z" style="fill:#62f4b8;fill-opacity:1;"/><path d="M978.153,419.013c12.605,-0.415 19.333,3.727 20.254,3.992c-0.312,1.273 -2.656,1.305 -2.968,2.578c-2.888,11.797 0.819,11.764 0.424,12.701c-0.428,1.015 -2.064,1.156 -2.493,2.172c-12.363,-4.753 -15.179,-2.658 -15.415,-8.486c-0.354,-8.751 0.132,-8.666 0.197,-12.957Z" style="fill:#6fee7e;fill-opacity:1;"/><path d="M1335.467,489.371c0.039,-0.002 2.176,-0.678 5.53,0.183c1.035,0.266 12.344,3.169 12.785,3.862c0.41,0.644 -1.087,1.543 -0.677,2.187c-0.578,5.226 -0.619,5.15 -0.03,10.467c-0.346,1.162 0.677,0.997 0.351,2.09c-0.066,0.222 -0.454,1.521 -1.68,2.366c-0.602,0.415 -1.573,-0.126 -2.175,0.289c-10.918,-2.776 -11.024,-2.541 -12.153,-3.423c-2.267,-1.771 -1.98,-16.572 -1.952,-18.022Z" style="fill:#f8f64f;fill-opacity:1;"/><path d="M423.285,319.195l-2.465,2.494c-7.908,6.157 -5.363,8.028 -4.052,11.11c-24.894,-4.923 -24.667,-6.273 -24.857,-7.003c-3.521,-13.501 24.343,-7.469 31.374,-6.601Z" style="fill:#4fe28c;fill-opacity:1;"/><path d="M98.678,266.597c1.474,0.073 2.948,0.146 4.422,0.219c-0.245,0.985 -1.44,1.552 -1.685,2.538c-0.021,0.083 -1.5,44.866 1.147,63.459c-0.997,0.736 -1.995,1.472 -2.992,2.208l-0.451,1.519c-1.574,-2.094 -3.148,-4.189 -4.722,-6.283c0.364,-1.201 2.631,-1.08 2.995,-2.282c0.566,-1.866 -3.424,-48.795 1.286,-61.378Z" style="fill:#1d2d3d;fill-opacity:1;"/><path d="M247.179,317.575c4.87,1.592 25.38,5.847 27.598,6.307c12.038,2.497 12.265,5.42 23.49,0.751c0.225,-0.094 0.089,-0.056 4.308,-0.03c2.49,0.015 1.949,1.032 4.286,2.042c0.606,0.262 1.287,-0.845 1.893,-0.582c-8.506,3.311 -8.346,3.297 -17.196,5.765c-1.259,-0.061 -2.519,-0.121 -3.778,-0.182c-34.33,-7.671 -43.335,-10.366 -47.047,-11.477c1.967,-1.212 0.364,-2.393 2.26,-3.562c0.293,-0.18 0.303,0.07 4.186,0.968Z" style="fill:#63f4b5;fill-opacity:1;"/><path d="M98.678,266.597c6.277,-10.194 9.363,-3.348 40.568,3.477c8.377,1.832 8.154,2.254 16.47,3.878c0.245,0.627 -0.039,0.579 0.214,1.226c0.827,2.117 0.266,2.044 0.572,4.39c-8.725,-2.357 -30.955,-7.166 -46.822,-11.429c-2.193,-0.441 -4.386,-0.882 -6.58,-1.322c-1.474,-0.073 -2.948,-0.146 -4.422,-0.219Z" style="fill:#415466;fill-opacity:1;"/><path d="M845.154,488.598c10.627,3.175 14.182,2.101 13.86,13.226c-0.24,8.303 -19.547,3.003 -19.952,-2.14c-0.621,-7.882 -1.815,-10.852 6.092,-11.086Z" style="fill:#0df6f5;fill-opacity:1;"/><path d="M731.388,474.32c-0.478,10.75 -5.413,7.451 -15.785,4.793c-7.552,-1.936 -5.908,-15.583 0.092,-14.789c10.73,1.42 15.167,0.481 15.693,9.996Z" style="fill:#0df6f7;fill-opacity:1;"/><path d="M29.32,184.622c-0.797,0.828 -5.008,5.208 -0.911,14.338c2.318,5.166 3.688,3.613 9.107,5.442l-2.273,3.447c-10.417,-2.975 -12.236,-3.764 -13.257,-4.207c-0.311,-1.071 0.849,-2.232 0.538,-3.303c-0.245,-0.844 -1.461,-1.026 -1.997,-1.723c-2.428,-3.155 -1.475,-3.683 -4.07,-6.57l-3.01,-1.561c-0.429,-8.805 1.224,-10.225 9.182,-9.273c1.374,0.164 2.902,-0.26 4.135,0.368c1.18,0.601 1.377,2.441 2.557,3.042Z" style="fill:#000207;fill-opacity:0.99;"/><path d="M873.764,372.599c0.079,7.594 2.193,11.687 -5.377,10.387c-10.307,-1.769 -13.396,-2.011 -12.376,-14.619c0.377,-4.661 14.898,-7.207 17.753,4.231Z" style="fill:#4ef5fc;fill-opacity:1;"/><path d="M539.815,342.705l0.483,2.302c2.327,1.966 1.517,2.814 4.565,3.857c0.688,0.236 1.444,1.105 -5.095,7.535c-3.689,-0.562 -21.697,-1.973 -21.639,-7.168c0.099,-8.913 13.582,-6.786 21.685,-6.525Z" style="fill:#53e38c;fill-opacity:1;"/><path d="M475.229,421.33c-1.054,5.291 -0.027,7.849 -5.485,6.823c-11.014,-2.07 -13.889,-1.939 -13.746,-13.162c0.078,-6.068 5.358,-4.523 5.38,-4.519c9.952,1.83 12.474,0.839 13.851,10.858Z" style="fill:#0ff6f3;fill-opacity:0.99;"/><path d="M829.234,491.277c0.002,2.928 0.581,9.643 -3.263,9.377c-16.549,-1.144 -16.689,-5.814 -16.732,-7.273c-0.374,-12.502 4.908,-12.179 16.519,-7.658c3.817,1.487 3.208,4.56 3.477,5.553Z" style="fill:#77ef8c;fill-opacity:1;"/><path d="M583.783,446.781c0.256,-5.995 0.116,-5.982 0.276,-6.475c1.019,-3.144 13.889,-0.125 15.063,0.15c6.524,1.53 3.583,13.492 3.249,13.944c-1.3,1.761 -12.83,-0.686 -13.922,-0.918c-5.401,-1.146 -4.486,-5.613 -4.666,-6.701Z" style="fill:#0df6f8;fill-opacity:1;"/><path d="M746.365,347.118c0.15,4.83 2.788,13.886 -13.565,8.195c-3.321,-1.156 -12.578,-22.404 10.385,-14.317c3.617,1.274 3.128,5.852 3.18,6.122Z" style="fill:#53f2fa;fill-opacity:1;"/><path d="M696.482,475.078c-11.722,-2.609 -16.797,-1.565 -14.405,-13.418c1.086,-5.38 18.922,-3.587 19.498,4.163c0.867,11.662 -3.816,9.058 -5.094,9.255Z" style="fill:#76f08f;fill-opacity:1;"/><path d="M338.591,386.549c4.143,1.372 12.149,-1.648 11.265,13.76c-0.347,6.051 -18.052,3.163 -18.545,-4.343c-0.518,-7.89 -0.544,-11.176 7.279,-9.418Z" style="fill:#0ff6f7;fill-opacity:1;"/><path d="M194.975,239.025c-0.88,9.73 -4.756,8.508 -13.72,4.801c-4.732,-1.957 -7.779,-17.593 2.443,-15.841c9.03,1.547 10.8,1.754 11.276,11.04Z" style="fill:#40f7fc;fill-opacity:1;"/><path d="M484.496,290.62c7.705,2.307 6.781,4.102 6.673,11.996c-0.104,7.629 -17.04,6.384 -17.29,-4.238c-0.015,-0.642 -0.159,-6.759 0.804,-7.982c1.533,-1.948 2.03,-0.846 9.813,0.224Z" style="fill:#58f5fa;fill-opacity:1;"/><path d="M811.137,366.206c0.366,-6.304 -2.051,-9.379 4.292,-9.234c11.775,0.269 13.993,1.836 13.214,13.528c-0.309,4.636 -15.496,5.78 -17.506,-4.294Z" style="fill:#87f69a;fill-opacity:1;"/><path d="M614.181,316.636c1.079,0.442 7.332,3.005 4.728,13.786c-0.986,4.083 -15.938,2.553 -16.456,-4.383c-0.695,-9.311 0.189,-11.92 5.199,-10.891c2.186,0.449 4.342,1.04 6.528,1.488Z" style="fill:#4ef2f9;fill-opacity:0.99;"/><path d="M302.663,387.403c0.566,-5.188 0.344,-5.235 0.611,-5.598c1.022,-1.394 10.96,0.521 11.896,0.701c9.69,1.867 7.147,15.565 2.114,14.884c-10.224,-1.383 -13.511,0.261 -14.621,-9.986Z" style="fill:#75f18e;fill-opacity:1;"/><path d="M431.672,405.654c9.248,1.847 16.047,-0.543 14.887,13.561c-0.361,4.393 -18.514,4.222 -18.604,-6.391c-0.041,-4.796 -0.245,-5.37 3.717,-7.17Z" style="fill:#71ed91;fill-opacity:1;"/><path d="M698.547,332.876c1.82,2.186 3.804,1.823 2.817,12.2c-0.45,4.733 -18.724,6.747 -16.655,-10.601c0.713,-5.976 9.94,-2.409 13.838,-1.6Z" style="fill:#80f39b;fill-opacity:1;"/><path d="M208.895,313.781c2.944,3.001 4.197,2.722 4.35,12.143c0.122,7.504 -19.187,6.792 -16.258,-10.491c0.061,-0.362 0.483,-2.852 3.556,-2.895c0.676,-0.009 0.619,0.092 8.353,1.243Z" style="fill:#42f7fa;fill-opacity:1;"/><path d="M229.643,247.477c-0.948,10.626 -15.815,6.287 -15.632,-4.222c0.161,-9.225 3.403,-9.585 12.042,-6.408c4.898,1.802 2.736,3.493 3.59,10.63Z" style="fill:#56f5f9;fill-opacity:1;"/><path d="M437.818,282.382c9.796,2.592 11.016,4.108 9.156,14.015c-0.645,3.435 -17.886,5.752 -15.484,-10.764c0.617,-4.245 1.909,-3.48 6.328,-3.251Z" style="fill:#87f79d;fill-opacity:1;"/><path d="M1519.233,637.67c2.663,1.393 2.677,1.172 4.626,3.39c2.865,3.26 15.752,7.355 22.762,7.582c1.201,0.039 13.471,0.436 14.956,1.441c0.971,0.658 1.483,1.865 2.454,2.523c-2.343,1.403 -9.212,5.519 -34.013,-2.875c-14.429,-4.883 -10.84,-10.082 -10.785,-12.061Z" style="fill:#6a8195;fill-opacity:0.99;"/><path d="M565.069,307.513c9.09,1.889 10.411,2.744 10.051,12.023c-0.258,6.636 -15.616,6.131 -15.795,-4.231c-0.103,-5.997 -0.316,-7.916 5.744,-7.792Z" style="fill:#8cf6a1;fill-opacity:0.99;"/><path d="M312.733,256.859c8.889,2.348 10.826,2.754 9.813,11.809c-0.868,7.755 -15.231,3.949 -15.732,-2.123c-0.526,-6.375 -2.502,-10.463 5.919,-9.686Z" style="fill:#88f69d;fill-opacity:0.99;"/><path d="M365.498,272.929c-0.262,6.899 -0.802,8.98 -7.853,7.557c-12.588,-2.541 -6.809,-15.812 -4.421,-15.697c0.817,0.039 9.163,1.593 10.204,2.41c2.579,2.025 1.659,2.409 2.07,5.73Z" style="fill:#81f399;fill-opacity:1;"/><path d="M212.097,291.98c-1.09,7.76 -4.054,6.856 -11.234,3.691c-2.764,-1.219 -9.96,-18.936 7.932,-13.357c4.291,1.338 3.29,9.355 3.302,9.666Z" style="fill:#80f794;fill-opacity:1;"/><path d="M161.203,228.343c-0.252,4.69 3.921,12.494 -9.54,9.182c-4.766,-1.173 -10.424,-17.699 4.288,-14.732c5.97,1.204 4.763,3.932 5.251,5.551Z" style="fill:#89f99b;fill-opacity:0.99;"/><path d="M1452.64,491.347c-0.131,9.272 1.565,14.502 -7.404,11.833c-5.811,-1.729 -4.763,-9.08 -4.356,-14.003c0.073,-0.883 6.638,-10.164 11.76,2.171Z" style="fill:#8df699;fill-opacity:1;"/><path d="M1452.524,580.314c-1.698,7.276 -4.428,7.494 -10.291,2.977c-2.593,-1.998 -6.47,-19.982 6.662,-14.794c4.745,1.875 3.574,9.446 3.629,11.817Z" style="fill:#7df393;fill-opacity:1;"/><path d="M1452.602,535.797c-0.89,8.254 -2.168,11.573 -9.31,7.524c-5.547,-3.145 -5.312,-21.931 5.716,-15.541c4.213,2.441 3.119,3.295 3.594,8.017Z" style="fill:#1af0e4;fill-opacity:1;"/><path d="M563.199,433.223c0.191,0.336 2.39,4.201 2.39,4.201c6.234,3.259 3.743,4.916 3.798,11.844c-11.154,-2.587 -15.28,-1.557 -14.199,-13.027c0.489,-5.192 6.507,-3.192 8.011,-3.017Z" style="fill:#6dee85;fill-opacity:1;"/><path d="M1522.634,510.425c1.051,0.175 1.787,-1.645 2.838,-1.47c0.888,0.148 0.231,1.24 10.299,4.52c0.535,0.119 6.687,1.489 6.687,1.489c7.642,0.97 6.758,-1.777 8.628,-3.373c4.319,0.598 4.175,0.576 8.458,0.068c-0.506,0.997 0.417,2.356 -0.089,3.352c-1.034,2.037 -1.762,1.272 -3.105,3.065c-1.48,1.976 -24.712,4.309 -33.717,-7.652Z" style="fill:#586b7f;fill-opacity:1;"/><path d="M20.433,321.66c2.705,3.61 2.909,3.197 6.809,5.328c3.85,2.104 3.644,-1.221 4.175,-1.399c4.136,3.557 4.378,5.479 16.492,6.084c-1.603,1.422 -1.2,4.917 -10.54,4.497c-2.258,-0.101 -7.357,-1.461 -8.214,-2.156c-5.614,-4.551 -6.497,-2.981 -11.994,-7.492c-0.182,-5.253 1.638,-4.379 3.273,-4.862Z" style="fill:#283645;fill-opacity:0.98;"/><path d="M272.447,309.599c-2.969,2.367 -2.643,4.203 -6.191,2.703c-3.023,-1.278 -2.899,-1.293 -6.302,-1.198c-4.124,0.115 -4.074,-0.633 -4.401,-0.497c-0.98,0.41 -1.031,2.092 -2.027,2.46c-0.805,0.297 -1.625,-1.061 -2.445,-0.808c0,0 -3.59,4.89 -3.902,5.315c-3.883,-0.898 -3.893,-1.148 -4.186,-0.968c-1.896,1.168 -0.293,2.35 -2.26,3.562c-0.506,-0.151 -9.864,-2.945 -1.726,-6.373c16.257,-6.849 16.68,-9.532 33.44,-4.197Z" style="fill:#66f2b4;fill-opacity:1;"/><path d="M1228.442,564.077c2.268,1.749 9.861,14.961 -8.288,10.331c-5.103,-1.302 -6.007,-12.299 0.158,-11.725c0.657,0.061 0.602,0.103 8.13,1.393Z" style="fill:#97a5ae;fill-opacity:1;"/><path d="M14.089,200.491c2.311,0.917 2.128,1.067 4.419,1.976c0.273,0.108 0.258,0.087 3.477,1.175c1.021,0.443 2.84,1.232 13.257,4.207l2.12,0.337l2.12,0.415l2.12,0.804l2.12,0.409l2.12,0.223c0.301,0.531 1.03,0.726 1.331,1.257c2.327,4.11 -17.193,0.531 -24.698,-1.758c-8.418,-2.567 -11.283,-3.934 -8.386,-9.045Z" style="fill:#465768;fill-opacity:0.99;"/><path d="M1368.511,590.114c-0.54,0.97 0.865,2.344 0.325,3.314c-1.74,3.125 -31.421,-3.957 -34.098,-4.596c-0.675,-0.161 -13.168,-3.142 -6.529,-5.711c0.691,-0.267 24.626,6.894 40.302,6.993Z" style="fill:#233647;fill-opacity:1;"/><path d="M287.78,331.645c1.259,0.061 2.519,0.121 3.778,0.182c0.488,2.537 1.849,9.608 0.993,32.282c-0.165,4.37 -2.568,4.33 -2.984,4.701c-2.155,-6.452 -1.477,-6.435 -1.538,-13.205l-0.059,-8.494c0.124,-7.873 1.48,-7.85 -0.19,-15.466Z" style="fill:#20cfc4;fill-opacity:0.99;"/><path d="M798.171,432.843l4.198,0.571c-2.793,27.517 4.244,33.934 -5.898,38.07c2.176,-18.58 0.38,-21.873 1.7,-38.641Z" style="fill:#158284;fill-opacity:1;"/><path d="M542.054,382.798c1.344,0.086 2.688,0.172 4.031,0.258c0.195,2.987 2.446,37.569 -1.974,37.368c-0.827,-0.038 -1.074,-1.561 -1.901,-1.599c0.204,-18.135 0.825,-17.945 -0.157,-36.027Z" style="fill:#1ea8a3;fill-opacity:0.99;"/><path d="M668.894,407.388c2.12,0.22 4.24,0.44 6.361,0.659c-5.068,18.504 2.689,28.127 -3.946,37.35c-1.318,-3.147 -2.072,-2.902 -1.881,-7.04c0.262,-28.614 0.511,-28.73 -0.535,-30.969Z" style="fill:#1aa8a4;fill-opacity:0.99;"/><path d="M1317.549,591.873c-4.049,-1.066 -10.778,-0.687 -10.98,-7.296c-0.261,-8.517 15.43,-5.157 15.831,2.076c0.415,7.493 -4.084,5.047 -4.85,5.22Z" style="fill:#99a9b2;fill-opacity:0.99;"/><path d="M1048.401,528.036c7.916,3.824 6.907,10.744 -1.877,9.39c-7.374,-1.136 -9.232,-0.609 -9.877,-8.041c-0.018,-0.21 -0.177,-2.037 0.915,-2.468c4.24,-1.673 4.256,-0.231 10.839,1.119Z" style="fill:#92a1ac;fill-opacity:1;"/><path d="M417.8,358.848c3.696,4.202 2.884,7.143 2.767,28.545c-0.036,6.635 -2.356,5.301 -3.606,6.07l-0.562,-1.515c-0.695,-10.319 -0.447,-24.381 -0.016,-30.107l1.418,-2.992Z" style="fill:#1dc7be;fill-opacity:0.99;"/><path d="M953.315,520.271c-1.648,-0.575 -5.488,-0.275 -6.075,-5.709c-1.121,-10.367 13.253,-3.206 13.879,-1.823c3.267,7.22 -0.016,8.675 -7.803,7.531Z" style="fill:#94a4ae;fill-opacity:1;"/><path d="M1135.296,544.973c3.282,3.322 4.765,3.174 3.457,7.641c-1.494,5.106 -16.574,4.052 -14.315,-6.31c0.476,-2.184 2.162,-2.467 2.438,-2.513c0.671,-0.112 0.624,0.088 8.42,1.183Z" style="fill:#a7b5be;fill-opacity:1;"/><path d="M1334.765,484.849c8.555,0.765 8.524,0.541 16.7,2.936c5.926,1.736 4.556,14.018 3.672,24.717c-5.217,-1.539 -5.113,-1.576 -5.565,-1.687c0.602,-0.415 1.573,0.126 2.175,-0.289c1.227,-0.845 1.614,-2.144 1.68,-2.366c0.326,-1.093 -0.698,-0.929 -0.351,-2.09c0.01,-3.489 0.02,-6.978 0.03,-10.467c-0.41,-0.644 1.087,-1.543 0.677,-2.187c-0.442,-0.693 -11.751,-3.597 -12.785,-3.862c-3.354,-0.861 -5.491,-0.185 -5.53,-0.183c-0.234,-1.507 -0.468,-3.014 -0.703,-4.521Z" style="fill:#222310;fill-opacity:1;"/><path d="M1579.747,465.163c3.603,-5.859 5.239,-18.524 11.161,-11.817c1.28,1.45 2.233,8.727 -2.052,12.069c-0.418,0.326 -4.476,3.491 -6.081,2.652c-1.239,-0.648 -1.789,-2.256 -3.028,-2.904Z" style="fill:#000004;fill-opacity:1;"/><path d="M526.848,360.544c-3.718,3.011 -3.776,4.49 -8.178,2.597c-5.117,-2.199 -5.207,-0.824 -10.69,-1.179c-0.779,-0.051 -1.579,-0.786 -2.293,-0.473c-0.953,0.418 -1.054,2.017 -2.033,2.369c-1.962,0.707 -3.841,-0.021 -4.151,-0.141c-1.655,-0.642 -0.682,-1.732 -2.339,-2.374c14.368,-5.629 14.772,-4.877 29.685,-0.799Z" style="fill:#62f3ab;fill-opacity:1;"/><path d="M1676.814,440.64c-5.22,11.174 -9.345,3.565 -9.038,-0.223c0.061,-0.749 0.525,-6.478 4.047,-8.478c6.812,-3.867 5.106,7.906 4.99,8.7Z" style="fill:#000001;fill-opacity:1;"/><path d="M1004.004,419.301c15.505,1.628 23.483,4.279 27.683,5.612c-1.053,1.649 -2.107,3.298 -3.16,4.947c-0.75,-0.344 -0.599,-1.731 -1.348,-2.075c-2.625,-1.205 -21.328,-4.085 -23.194,-4.372c0.006,-1.371 0.013,-2.742 0.019,-4.113Z" style="fill:#152717;fill-opacity:1;"/><path d="M1676.85,485.001c-3.997,13.632 -8.69,6.981 -8.91,6.144c-2.063,-7.837 1.63,-11.253 2.343,-11.913c5.235,-4.843 6.48,5.075 6.567,5.769Z" style="fill:#000001;fill-opacity:1;"/><path d="M1625.771,465.946c-4.98,13.848 -9.235,4.995 -9.352,4.184c-1.008,-6.983 1.965,-9.828 2.585,-10.422c6.149,-5.885 6.729,5.503 6.766,6.238Z" style="fill:#000001;fill-opacity:1;"/><path d="M1625.749,442.671c-4.868,11.886 -10.285,4.382 -9.467,-0.217c0.79,-4.444 10.485,-16.324 9.467,0.217Z" style="fill:#000001;fill-opacity:1;"/><path d="M1624.004,517.059c-6.591,15.078 -8.261,0.268 -8.207,-0.387c0.865,-10.472 9.145,-11.768 9.178,-4.196c0.002,0.375 -0.072,0.339 -0.971,4.583Z" style="fill:#000002;fill-opacity:1;"/><path d="M1727.5,457.42c-4.367,14.652 -9.751,4.418 -9.676,2.034c0.194,-6.182 8.072,-15.37 9.676,-2.034Z" style="fill:#000001;fill-opacity:1;"/><path d="M1791.18,423.522c-2.658,12.803 -7.436,7.466 -7.725,6.701c-1.601,-4.248 0.331,-10.577 1.73,-12.159c0.43,-0.486 5.747,-6.215 5.995,5.458Z" style="fill:#000002;fill-opacity:1;"/><path d="M1727.717,413.09c-6.858,15.024 -11.942,-6.011 -5.096,-8.844c6.486,-2.685 5.194,8.033 5.096,8.844Z" style="fill:#000001;fill-opacity:1;"/><path d="M1727.76,434.126c-3.878,12.961 -9.158,4.934 -9.105,2.038c0.127,-6.939 8.127,-14.302 9.105,-2.038Z" style="fill:#000001;fill-opacity:1;"/><path d="M1804.926,420.949c-12.946,7.703 -5.157,-11.507 -1.56,-11.93c7.912,-0.929 1.986,11.067 1.56,11.93Z" style="fill-opacity:1;"/><path d="M1642.526,457.416c-3.49,10.779 -8.802,4.559 -8.566,-0.037c0.308,-5.993 8.058,-11.189 8.566,0.037Z" style="fill:#000002;fill-opacity:1;"/><path d="M1822.862,381.056c-2.578,14.022 -8.079,6.983 -8.342,6.194c-1.863,-5.585 5.678,-19.546 8.342,-6.194Z" style="fill:#000001;fill-opacity:1;"/><path d="M1791.545,376.912c-5.294,16.215 -8.073,0.514 -8.045,-0.129c0.029,-0.658 0.269,-6.023 3.153,-7.604c4.331,-2.374 4.851,7.002 4.891,7.733Z" style="fill:#000002;fill-opacity:1;"/><path d="M1641.868,480.656c-5.803,16.215 -8.566,0.706 -8.473,-0.003c0.593,-4.528 8.334,-13.418 8.473,0.003Z" style="fill:#000001;fill-opacity:1;"/><path d="M1734.825,427.648c0.222,-0.835 2.786,-10.483 6.873,-8.326c5.847,3.087 -3.945,23.9 -6.873,8.326Z" style="fill-opacity:1;"/><path d="M1760.42,372.363c-9.638,13.903 -10.055,-6.831 -3.874,-8.429c6.192,-1.601 4.041,7.706 3.874,8.429Z" style="fill-opacity:1;"/><path d="M1759.229,442.683c-5.881,14.481 -7.732,0.419 -7.701,-0.197c0.033,-0.662 0.307,-6.218 3.44,-7.532c5.973,-2.505 4.377,7.033 4.261,7.729Z" style="fill:#000001;fill-opacity:1;"/><path d="M927.818,501.516c0.682,0.162 8.521,2.021 8.521,2.021c7.398,1.709 8.468,0.966 8.283,2.632c-0.532,4.778 -14.151,-0.579 -14.523,-0.38c-0.198,0.106 -0.756,3.196 -4.391,2.023c-4.079,-1.316 -4.204,-1.104 -4.645,-1.708c-0.47,-0.643 0.628,-1.742 0.158,-2.385c2.199,-0.735 4.398,-1.47 6.598,-2.204Z" style="fill:#152433;fill-opacity:1;"/><path d="M1822.813,359.918c-3.093,11.56 -7.014,7.388 -7.352,6.669c-3.219,-6.839 7.323,-23.548 7.352,-6.669Z" style="fill:#000002;fill-opacity:1;"/><path d="M1791.204,400.216c-4.158,13.111 -7.808,2.779 -7.849,2.13c-0.358,-5.571 1.826,-8.334 2.822,-8.768c5.269,-2.299 4.909,0.86 5.027,6.639Z" style="fill:#000002;fill-opacity:1;"/><path d="M1822.214,408.583c-6.114,13.562 -8.218,0.344 -7.695,-1.952c1.048,-4.603 8.332,-8.923 7.695,1.952Z" style="fill:#000001;"/><path d="M563.199,433.223c8.327,1.733 11.861,1.405 10.603,13.564c-0.314,3.034 -1.534,1.855 -4.415,2.48c-0.055,-6.928 2.437,-8.585 -3.798,-11.844c-0,-0 -2.199,-3.864 -2.39,-4.201Z" style="fill:#93ecad;fill-opacity:0.99;"/><path d="M1822.741,338.731c-4.385,11.806 -8.437,2.663 -7.979,0.021c0.289,-1.665 1.77,-6.19 3.199,-6.677c5.31,-1.809 4.647,1.14 4.779,6.656Z" style="fill:#000001;fill-opacity:1;"/><path d="M1535.772,513.475l2.486,-2.806c6.558,0.056 6.477,-0.307 12.83,0.922c-1.87,1.596 -0.987,4.342 -8.628,3.373c-0,-0 -6.152,-1.37 -6.687,-1.489Z" style="fill:#2d3c4d;fill-opacity:1;"/><path d="M611.892,268.493c8.878,2.174 12.294,1.118 9.912,3.975c-0.812,0.974 -3.294,0.605 -3.581,0.562c-0.745,-0.111 -1.434,-0.814 -2.167,-0.642c-0.756,0.177 -1.009,1.836 -1.734,1.557c-0.446,-0.172 -0.176,-0.395 -2.43,-5.451Z" style="fill:#223546;fill-opacity:1;"/><path d="M911.732,492.84c-1.782,0.946 -3.564,1.893 -5.346,2.839c-1.469,-1.954 -2.69,-1.899 -1.468,-3.668c0.312,-0.452 0.815,-1.18 6.813,0.829Z" style="fill:#394d5f;fill-opacity:1;"/><path d="M1337.127,44.798c2.696,0.734 3.916,0.385 3.16,3.16c-0.68,2.496 -8.294,1.973 -3.16,-3.16Z" style="fill:none;"/><path d="M1337.127,97.796c2.696,0.734 3.916,0.385 3.16,3.16c-0.679,2.491 -8.295,1.974 -3.16,-3.16Z" style="fill:none;"/><path d="M1488.686,86.638c-1.895,6.927 -5.745,0.812 -4.051,-0.882c1.913,-1.913 2.233,-0.93 4.051,0.882Z" style="fill:none;"/><path d="M1340.288,112.079c-1.88,6.902 -5.76,0.824 -4.047,-0.886c1.914,-1.911 2.232,-0.925 4.047,0.886Z" style="fill:none;"/><path d="M1488.686,124.797c-1.893,6.924 -5.747,0.814 -4.051,-0.882c1.913,-1.913 2.233,-0.929 4.051,0.882Z" style="fill:none;"/><path d="M1488.691,75.52c-5.149,5.119 -5.647,-2.475 -3.165,-3.158c2.693,-0.741 2.41,0.41 3.165,3.158Z" style="fill:none;"/><path d="M348.171,60.678c-5.136,5.123 -5.654,-2.481 -3.16,-3.16c2.775,-0.756 2.426,0.464 3.16,3.16Z" style="fill:none;"/><path d="M1488.682,139.115c-5.177,5.092 -5.633,-2.486 -3.16,-3.159c2.738,-0.745 2.419,0.442 3.16,3.159Z" style="fill:none;"/><path d="M1338.725,59.638c5.149,5.149 -2.5,5.574 -3.16,3.161c-0.761,-2.781 0.467,-2.427 3.16,-3.161Z" style="fill:none;"/><path d="M1877.443,229.471c-0.583,-0.898 -2.103,-0.862 -2.686,-1.759c-1.791,-2.76 9.488,-2.404 5.91,0.705c-0.854,0.742 -2.37,0.313 -3.224,1.055Z" style="fill:none;"/><path d="M1335.416,126.612c0.777,-2.505 0.679,-2.545 0.839,-2.705c3.579,-3.568 5.235,4.552 2.145,4.133c-1.093,-0.148 -1.892,-1.28 -2.985,-1.428Z" style="fill:none;"/><path d="M1103.405,599.862c0.936,-0.134 1.455,-1.391 2.391,-1.526c3.601,-0.517 3.518,2.382 3.508,2.738c-0.014,0.482 -0.908,4.778 -5.899,-1.212Z" style="fill:none;"/><path d="M1257.955,80.885c-1.482,-3.676 -1.296,-6.001 2.217,-4.378c0.266,0.123 2.898,1.338 0.534,3.621c-0.684,0.661 -2.067,0.096 -2.751,0.757Z" style="fill:none;"/><path d="M1411.481,664.644c5.707,4.498 0.047,4.443 -0.277,4.321c-2.333,-0.879 -0.78,-1.592 0.277,-4.321Z" style="fill:none;"/><path d="M755.62,414.596l0.013,3.064c-4.038,-0.091 -4.342,0.249 -4.344,-0.098c-0.001,-0.306 -0.007,-1.604 2.211,-3.124c0.584,-0.4 1.535,0.558 2.119,0.158Z" style="fill:#3eec86;fill-opacity:1;"/><path d="M1081.029,450.944c0.834,-5.013 -0.034,-11.255 1.046,-6.293c0.248,1.141 -0.06,0.996 0.142,2.117c0.417,2.318 -0.566,1.99 -1.188,4.176Z" style="fill:#7bd378;fill-opacity:1;"/><path d="M1094.945,84.435c1.505,0.337 3.01,0.673 4.516,1.01c-1.239,0.304 -0.371,1.347 -1.594,1.647c-0.25,0.061 -2.091,0.513 -3.179,-0.477c-0.541,-0.492 0.798,-1.688 0.257,-2.18Z" style="fill:none;"/><path d="M1353.106,495.602c-0.01,3.489 -0.02,6.978 -0.03,10.467c-0.589,-5.318 -0.548,-5.241 0.03,-10.467Z" style="fill:#a2a133;fill-opacity:1;"/><path d="M102.562,332.813l0.633,1.389c-1.208,0.273 -2.416,0.546 -3.624,0.819c0.997,-0.736 1.995,-1.472 2.992,-2.208Z" style="fill:#13212f;fill-opacity:1;"/><path d="M1345.233,549.679c-0.01,-1.093 -0.02,-2.187 -0.03,-3.28c1.352,2.267 4.28,2.184 2.007,3.366c-0.966,0.502 -0.949,-0.62 -1.978,-0.086Z" style="fill:#05111d;fill-opacity:1;"/><path d="M13.446,190.485l3.01,1.561c-1.496,0.03 -1.248,0.511 -2.791,0.542c-0.169,0.003 -0,-0 -0.219,-2.103Z" style="fill:#060f1d;fill-opacity:0.99;"/><path d="M76.661,180.436l1.131,1.089l-2.016,-0.501l0.885,-0.588Z" style="fill:#354250;fill-opacity:0.99;"/></g></svg>